<?xml version="1.0" encoding="UTF-8"?>
<svg version="1.1" xmlns="http://www.w3.org/2000/svg" width="128" height="128">
<path d="M0 0 C5.0829707 0.06558672 9.73692173 1.29914168 14.62890625 2.5859375 C29.91565389 6.40728932 44.51700687 8.43411369 60.19140625 5.9609375 C61.05024414 5.83033936 61.90908203 5.69974121 62.79394531 5.56518555 C69.66044543 4.47094029 76.30335176 2.87927319 82.98828125 0.98046875 C87.06919117 0.10280581 90.40314979 -0.0237993 94.56640625 0.2109375 C96.92680486 1.98123646 97.39393403 3.25450066 97.91015625 6.1171875 C98.20451046 10.06153386 98.20451046 10.06153386 97.56640625 12.2109375 C94.04877396 15.43987775 90.71485119 17.15018727 86.2421875 18.75390625 C84.45264648 19.40456055 84.45264648 19.40456055 82.62695312 20.06835938 C81.39009766 20.50728516 80.15324219 20.94621094 78.87890625 21.3984375 C77.61751025 21.85260487 76.3564389 22.30767498 75.09570312 22.76367188 C72.79641369 23.59490551 70.49553964 24.42177777 68.19262695 25.24291992 C65.63396849 26.13120747 65.63396849 26.13120747 63.56640625 27.2109375 C63.14126785 36.63956237 64.7641508 45.59324877 66.37890625 54.8359375 C66.6433017 56.38919992 66.9069777 57.94258499 67.16992188 59.49609375 C68.20445709 65.56750782 69.24777865 71.63501185 70.43505859 77.67871094 C70.5744133 78.39360687 70.71376801 79.10850281 70.85734558 79.84506226 C71.23951021 81.78903575 71.63054012 83.73126052 72.0222168 85.67333984 C73.42044753 94.76278055 73.42044753 94.76278055 71.12890625 98.6484375 C67.44800401 100.89289008 63.77866569 101.07200711 59.56640625 100.2109375 C56.10286245 97.68715787 55.71619424 94.61348571 54.84765625 90.55859375 C54.63163757 89.57553505 54.63163757 89.57553505 54.41125488 88.57261658 C53.95248065 86.47500538 53.5089686 84.37452279 53.06640625 82.2734375 C52.62205961 80.21185325 52.17454959 78.15097533 51.7265625 76.09017944 C51.43360773 74.7418462 51.14192917 73.39323501 50.8515625 72.04434204 C49.55739152 66.06495958 48.09906155 60.13313442 46.56640625 54.2109375 C45.90640625 54.2109375 45.24640625 54.2109375 44.56640625 54.2109375 C42.62758478 61.57629281 40.79225472 68.93057592 39.328125 76.40625 C39.11824951 77.46908203 38.90837402 78.53191406 38.69213867 79.62695312 C38.28100259 81.73540908 37.88107013 83.84608646 37.4934082 85.95898438 C36.40052623 91.5400476 35.45695081 95.94850265 31.56640625 100.2109375 C28.48682511 101.21939189 25.71725006 100.87001309 22.56640625 100.2109375 C20.00390625 98.7109375 20.00390625 98.7109375 18.56640625 96.2109375 C18.21103751 89.88431715 19.1230946 84.03932204 20.28125 77.83203125 C20.45644669 76.86113052 20.63164337 75.8902298 20.81214905 74.88990784 C21.36952658 71.80818666 21.93636608 68.72830166 22.50390625 65.6484375 C23.06588433 62.56467019 23.62589962 59.48055449 24.18495178 56.39625549 C24.53229357 54.48370622 24.88166373 52.57152384 25.23338318 50.65977478 C27.09587389 40.53538061 27.09587389 40.53538061 27.62890625 30.2734375 C27.61988281 29.31566406 27.61085937 28.35789062 27.6015625 27.37109375 C27.58996094 26.65824219 27.57835937 25.94539063 27.56640625 25.2109375 C26.98117188 25.06398438 26.3959375 24.91703125 25.79296875 24.765625 C19.53048266 23.12947998 13.35076851 21.25827356 7.19140625 19.2734375 C6.41877441 19.03286621 5.64614258 18.79229492 4.85009766 18.54443359 C-0.06764739 16.93228615 -4.79430514 15.18214811 -7.43359375 10.3984375 C-7.43359375 4.93411717 -5.50495916 0.33818862 0 0 Z " fill="#000000" transform="translate(18.43359375,27.7890625)"/>
<path d="M0 0 C4.8125 3.9375 4.8125 3.9375 6.0625 7.6875 C6.45982046 12.19555912 6.59902485 16.31638094 4.9375 20.5625 C1.91440292 23.98867669 -0.71223854 26.36654883 -5.375 27.0390625 C-10.33181511 27.20133919 -14.0299861 27.0203795 -17.9375 23.6875 C-18.700625 23.048125 -19.46375 22.40875 -20.25 21.75 C-22.93643905 16.87461061 -22.90511472 12.11330995 -21.9375 6.6875 C-17.45668491 -1.5858545 -8.50841907 -3.80163405 0 0 Z " fill="#000000" transform="translate(71.9375,1.3125)"/>
</svg>
